<?xml version="1.0" encoding="UTF-8"?><svg id="Calque_1" xmlns="http://www.w3.org/2000/svg" viewBox="0 0 1366 147"><path d="m144.69,1.54v85.91H27.13v31.65h117.56v27.13H0V1.54h144.69Zm-27.13,27.13H27.13v31.65h90.43v-31.65Z"/><path d="m325.56,1.54l-56.07,72.35,56.07,72.35h-32.55l-39.79-51.34-39.79,51.34h-32.56l56.07-72.35L180.87,1.54h32.56l39.79,51.34L293.01,1.54h32.55Z"/><path d="m492.18.84v88.07h-118.3v19.54c0,.35-.09.52-.26.52-.52.17-.78.44-.78.78v36.22h-28.92V.84h148.27Zm-26.84,27.1c.52,0,.95-.09,1.3-.26.35-.17.52-.43.52-.78-21.2,0-52.99-.09-95.37-.26-.17,7.82-.26,19.54-.26,35.18,1.21-1.21,2.52-1.73,3.91-1.56,1.21.17,2.52.26,3.91.26h41.95c13.9.17,27.88.26,41.95.26h1.82c0-7.3.09-18.24.26-32.83Z"/><path d="m656,1.54v144.69h-144.69V1.54h144.69Zm-27.13,27.13h-90.43v90.43h90.43V28.67Z"/><path d="m719.3,1.54h117.56v27.13h-117.56v31.65h117.56v85.91h-144.69v-27.13h117.56v-31.65h-117.56V1.54h27.13Z"/><path d="m1017.73,1.54v144.69h-144.69V60.32h117.56v-31.65h-117.56V1.54h144.69Zm-27.13,85.91h-90.43v31.65h90.43v-31.65Z"/><path d="m1081.04,146.24h-27.13V1.54h144.69v27.13h-117.56v117.56Z"/><path d="m1366,27.94h-59.41v117.52h-29.18V27.94h-59.93V-.21h148.53v28.14Z"/></svg>